<svg xmlns="http://www.w3.org/2000/svg" viewBox="0 0 200 240" width="200" height="240">
  <defs>
    <linearGradient id="shieldGrad" x1="0%" y1="0%" x2="0%" y2="100%">
      <stop offset="0%" style="stop-color:#034E81;stop-opacity:1" />
      <stop offset="100%" style="stop-color:#022a45;stop-opacity:1" />
    </linearGradient>
    <linearGradient id="bannerGrad" x1="0%" y1="0%" x2="100%" y2="0%">
      <stop offset="0%" style="stop-color:#3681B4;stop-opacity:1" />
      <stop offset="100%" style="stop-color:#034E81;stop-opacity:1" />
    </linearGradient>
  </defs>
  <!-- Shield shape -->
  <path d="M100 10 L185 50 L185 140 Q185 200 100 230 Q15 200 15 140 L15 50 Z" fill="url(#shieldGrad)" stroke="#f8fafc" stroke-width="3"/>
  <!-- Inner border -->
  <path d="M100 22 L175 57 L175 138 Q175 192 100 220 Q25 192 25 138 L25 57 Z" fill="none" stroke="rgba(255,255,255,0.2)" stroke-width="1.5"/>
  <!-- Building icon (town hall) -->
  <rect x="70" y="100" width="60" height="55" rx="2" fill="rgba(255,255,255,0.9)"/>
  <polygon points="100,65 55,100 145,100" fill="rgba(255,255,255,0.9)"/>
  <!-- Pillars -->
  <rect x="80" y="108" width="8" height="40" rx="1" fill="#034E81"/>
  <rect x="96" y="108" width="8" height="40" rx="1" fill="#034E81"/>
  <rect x="112" y="108" width="8" height="40" rx="1" fill="#034E81"/>
  <!-- Door -->
  <rect x="93" y="135" width="14" height="20" rx="7" fill="#034E81"/>
  <!-- Star -->
  <polygon points="100,42 103,51 112,51 105,57 107,66 100,61 93,66 95,57 88,51 97,51" fill="#FFD700"/>
  <!-- Banner -->
  <rect x="40" y="175" width="120" height="24" rx="12" fill="url(#bannerGrad)"/>
  <text x="100" y="191" text-anchor="middle" font-family="sans-serif" font-size="11" font-weight="600" fill="white">TELEPÜLÉS</text>
</svg>
