<svg xmlns="http://www.w3.org/2000/svg" viewBox="0 0 400 500" width="400" height="500">
  <defs>
    <linearGradient id="bgGrad" x1="0%" y1="0%" x2="0%" y2="100%">
      <stop offset="0%" style="stop-color:#1e293b;stop-opacity:1" />
      <stop offset="100%" style="stop-color:#0f172a;stop-opacity:1" />
    </linearGradient>
  </defs>
  <!-- Background -->
  <rect width="400" height="500" rx="20" fill="url(#bgGrad)"/>
  <!-- Body/shoulders -->
  <ellipse cx="200" cy="520" rx="160" ry="100" fill="#334155"/>
  <!-- Shirt/suit collar -->
  <path d="M120 420 L200 460 L280 420 L280 500 L120 500 Z" fill="#1e3a5f"/>
  <path d="M160 420 L200 450 L240 420" fill="none" stroke="#f8fafc" stroke-width="2"/>
  <!-- Tie -->
  <polygon points="195,420 205,420 203,470 200,475 197,470" fill="#034E81"/>
  <!-- Head -->
  <circle cx="200" cy="220" r="90" fill="#94a3b8"/>
  <!-- Face features -->
  <circle cx="170" cy="205" r="8" fill="#475569"/>
  <circle cx="230" cy="205" r="8" fill="#475569"/>
  <path d="M175 250 Q200 270 225 250" fill="none" stroke="#475569" stroke-width="3" stroke-linecap="round"/>
  <!-- Hair -->
  <path d="M115 200 Q115 130 200 130 Q285 130 285 200" fill="#475569" stroke="none"/>
  <!-- "Placeholder" text -->
  <rect x="100" y="350" width="200" height="36" rx="18" fill="rgba(3,78,129,0.8)"/>
  <text x="200" y="373" text-anchor="middle" font-family="sans-serif" font-size="14" font-weight="600" fill="white">Polgármester fotója</text>
</svg>
